<svg xmlns="http://www.w3.org/2000/svg" xmlns:xlink="http://www.w3.org/1999/xlink" width="500" zoomAndPan="magnify" viewBox="0 0 375 374.999991" height="500" preserveAspectRatio="xMidYMid meet" version="1.2"><defs><clipPath id="a4fd3eab42"><path d="M 124.929688 85.210938 L 237.429688 85.210938 L 237.429688 197.710938 L 124.929688 197.710938 Z M 124.929688 85.210938 "/></clipPath><clipPath id="be35b410cf"><path d="M 142.179688 85.210938 L 220.179688 85.210938 C 224.757812 85.210938 229.144531 87.027344 232.378906 90.265625 C 235.613281 93.5 237.429688 97.886719 237.429688 102.460938 L 237.429688 180.460938 C 237.429688 185.035156 235.613281 189.425781 232.378906 192.660156 C 229.144531 195.894531 224.757812 197.710938 220.179688 197.710938 L 142.179688 197.710938 C 137.605469 197.710938 133.21875 195.894531 129.984375 192.660156 C 126.75 189.425781 124.929688 185.035156 124.929688 180.460938 L 124.929688 102.460938 C 124.929688 97.886719 126.75 93.5 129.984375 90.265625 C 133.21875 87.027344 137.605469 85.210938 142.179688 85.210938 Z M 142.179688 85.210938 "/></clipPath><clipPath id="f87e033b63"><path d="M 130.113281 96 L 231 96 L 231 191.5 L 130.113281 191.5 Z M 130.113281 96 "/></clipPath><clipPath id="1b504730be"><path d="M 138.1875 114.894531 L 172.441406 98 C 177.527344 95.488281 183.496094 95.488281 188.582031 98 L 222.835938 114.894531 C 227.777344 117.332031 230.90625 122.363281 230.90625 127.875 L 230.90625 159.585938 C 230.90625 165.09375 227.777344 170.128906 222.835938 172.566406 L 188.582031 189.460938 C 183.496094 191.96875 177.527344 191.96875 172.441406 189.460938 L 138.1875 172.566406 C 133.246094 170.128906 130.113281 165.09375 130.113281 159.585938 L 130.113281 127.875 C 130.113281 122.363281 133.246094 117.332031 138.1875 114.894531 Z M 138.1875 114.894531 "/></clipPath><clipPath id="53e74753a9"><path d="M 130.113281 96 L 231 96 L 231 191.621094 L 130.113281 191.621094 Z M 130.113281 96 "/></clipPath><clipPath id="ed51463c46"><path d="M 138.1875 114.894531 L 172.4375 98 C 177.527344 95.492188 183.492188 95.492188 188.578125 98 L 222.832031 114.894531 C 227.773438 117.332031 230.902344 122.363281 230.902344 127.875 L 230.902344 159.585938 C 230.902344 165.09375 227.773438 170.125 222.832031 172.5625 L 188.578125 189.457031 C 183.492188 191.964844 177.527344 191.964844 172.4375 189.457031 L 138.1875 172.5625 C 133.246094 170.125 130.113281 165.09375 130.113281 159.585938 L 130.113281 127.875 C 130.113281 122.363281 133.246094 117.332031 138.1875 114.894531 Z M 138.1875 114.894531 "/></clipPath></defs><g id="e3bf3d9903"><g clip-rule="nonzero" clip-path="url(#a4fd3eab42)"><g clip-rule="nonzero" clip-path="url(#be35b410cf)"><path style=" stroke:none;fill-rule:nonzero;fill:#ffffff;fill-opacity:1;" d="M 124.929688 85.210938 L 237.429688 85.210938 L 237.429688 197.710938 L 124.929688 197.710938 Z M 124.929688 85.210938 "/></g></g><g clip-rule="nonzero" clip-path="url(#f87e033b63)"><g clip-rule="nonzero" clip-path="url(#1b504730be)"><path style=" stroke:none;fill-rule:nonzero;fill:#ffffff;fill-opacity:1;" d="M 130.113281 193.441406 L 130.113281 94.019531 L 231.089844 94.019531 L 231.089844 193.441406 Z M 130.113281 193.441406 "/></g></g><g clip-rule="nonzero" clip-path="url(#53e74753a9)"><g clip-rule="nonzero" clip-path="url(#ed51463c46)"><path style="fill:none;stroke-width:8;stroke-linecap:butt;stroke-linejoin:miter;stroke:#000000;stroke-opacity:1;stroke-miterlimit:4;" d="M 104.724392 10.763152 L 127.250435 56.429821 C 130.594185 63.21628 130.594185 71.169406 127.250435 77.950656 L 104.724392 123.622534 C 101.474392 130.211076 94.766058 134.382951 87.417099 134.382951 L 45.135846 134.382951 C 37.792096 134.382951 31.083762 130.211076 27.833762 123.622534 L 5.307719 77.950656 C 1.963969 71.169406 1.963969 63.21628 5.307719 56.429821 L 27.833762 10.763152 C 31.083762 4.17461 37.792096 -0.00247401 45.135846 -0.00247401 L 87.417099 -0.00247401 C 94.766058 -0.00247401 101.474392 4.17461 104.724392 10.763152 Z M 104.724392 10.763152 " transform="matrix(0,-0.75,0.75,0,130.115137,193.43782)"/></g></g><g style="fill:#000000;fill-opacity:1;"><g transform="translate(135.993019, 163.896232)"><path style="stroke:none" d="M 24.609375 -6.296875 L 24.609375 0 L 0.921875 0 L 14.0625 -25.171875 L 1.84375 -25.171875 L 1.84375 -31.453125 L 25.359375 -31.453125 L 12.21875 -6.296875 Z M 24.609375 -6.296875 "/></g></g><g style="fill:#000000;fill-opacity:1;"><g transform="translate(171.529372, 163.896232)"><path style="stroke:none" d="M 19.890625 -12.03125 L 15.921875 -23.21875 L 11.9375 -12.03125 Z M 31.640625 0 L 24.203125 0 L 21.9375 -6.34375 L 9.953125 -6.34375 L 7.6875 0 L 0.234375 0 L 13 -31.453125 L 18.875 -31.453125 Z M 31.640625 0 "/></g></g><g style="fill:#000000;fill-opacity:1;"><g transform="translate(212.664547, 163.896232)"><path style="stroke:none" d="M 9.71875 0 L 2.78125 0 L 2.78125 -31.453125 L 9.71875 -31.453125 Z M 9.71875 0 "/></g></g><g style="fill:#8c52ff;fill-opacity:1;"><g transform="translate(130.28407, 155.142045)"><path style="stroke:none" d="M 24.609375 -6.296875 L 24.609375 0 L 0.921875 0 L 14.0625 -25.171875 L 1.84375 -25.171875 L 1.84375 -31.453125 L 25.359375 -31.453125 L 12.21875 -6.296875 Z M 24.609375 -6.296875 "/></g></g><g style="fill:#8c52ff;fill-opacity:1;"><g transform="translate(165.817194, 155.142045)"><path style="stroke:none" d="M 19.890625 -12.03125 L 15.921875 -23.21875 L 11.9375 -12.03125 Z M 31.640625 0 L 24.203125 0 L 21.9375 -6.34375 L 9.953125 -6.34375 L 7.6875 0 L 0.234375 0 L 13 -31.453125 L 18.875 -31.453125 Z M 31.640625 0 "/></g></g><g style="fill:#8c52ff;fill-opacity:1;"><g transform="translate(206.948459, 155.142045)"><path style="stroke:none" d="M 9.71875 0 L 2.78125 0 L 2.78125 -31.453125 L 9.71875 -31.453125 Z M 9.71875 0 "/></g></g><path style="fill:none;stroke-width:4;stroke-linecap:butt;stroke-linejoin:miter;stroke:#8c52ff;stroke-opacity:1;stroke-miterlimit:4;" d="M 0.00167017 2.001934 L 65.248931 1.999387 " transform="matrix(0.673053,-0.324341,0.324341,0.673053,130.134723,110.723446)"/><path style="fill:none;stroke-width:4;stroke-linecap:butt;stroke-linejoin:miter;stroke:#8c52ff;stroke-opacity:1;stroke-miterlimit:4;" d="M 0.00000151023 2.000248 L 43.999648 1.997602 " transform="matrix(0.669504,-0.338031,0.338031,0.669504,182.714479,180.676452)"/></g></svg>