<svg xmlns="http://www.w3.org/2000/svg" xmlns:xlink="http://www.w3.org/1999/xlink" width="500" zoomAndPan="magnify" viewBox="0 0 375 374.999991" height="500" preserveAspectRatio="xMidYMid meet" version="1.2"><defs><clipPath id="172ebf8515"><path d="M 135.5 128.265625 L 236.476562 128.265625 L 236.476562 223.804688 L 135.5 223.804688 Z M 135.5 128.265625 "/></clipPath><clipPath id="e6c9201510"><path d="M 143.574219 147.195312 L 177.828125 130.304688 C 182.914062 127.792969 188.878906 127.792969 193.96875 130.304688 L 228.222656 147.195312 C 233.164062 149.632812 236.292969 154.667969 236.292969 160.175781 L 236.292969 191.890625 C 236.292969 197.398438 233.164062 202.433594 228.222656 204.871094 L 193.96875 221.765625 C 188.878906 224.273438 182.914062 224.273438 177.828125 221.765625 L 143.574219 204.871094 C 138.628906 202.433594 135.5 197.398438 135.5 191.890625 L 135.5 160.175781 C 135.5 154.667969 138.628906 149.632812 143.574219 147.195312 Z M 143.574219 147.195312 "/></clipPath><clipPath id="f824e0e087"><path d="M 135.5 128 L 236.75 128 L 236.75 223.921875 L 135.5 223.921875 Z M 135.5 128 "/></clipPath><clipPath id="0e6a7b570f"><path d="M 143.574219 147.199219 L 177.824219 130.304688 C 182.910156 127.796875 188.878906 127.796875 193.964844 130.304688 L 228.21875 147.199219 C 233.160156 149.636719 236.289062 154.667969 236.289062 160.179688 L 236.289062 191.890625 C 236.289062 197.398438 233.160156 202.429688 228.21875 204.867188 L 193.964844 221.761719 C 188.878906 224.269531 182.910156 224.269531 177.824219 221.761719 L 143.574219 204.867188 C 138.628906 202.429688 135.5 197.398438 135.5 191.890625 L 135.5 160.179688 C 135.5 154.667969 138.628906 149.636719 143.574219 147.199219 Z M 143.574219 147.199219 "/></clipPath></defs><g id="1cca6fb46b"><g clip-rule="nonzero" clip-path="url(#172ebf8515)"><g clip-rule="nonzero" clip-path="url(#e6c9201510)"><path style=" stroke:none;fill-rule:nonzero;fill:#000000;fill-opacity:1;" d="M 135.5 225.746094 L 135.5 126.324219 L 236.476562 126.324219 L 236.476562 225.746094 Z M 135.5 225.746094 "/></g></g><g clip-rule="nonzero" clip-path="url(#f824e0e087)"><g clip-rule="nonzero" clip-path="url(#0e6a7b570f)"><path style="fill:none;stroke-width:8;stroke-linecap:butt;stroke-linejoin:miter;stroke:#ffffff;stroke-opacity:1;stroke-miterlimit:4;" d="M 104.72401 10.763549 L 127.250053 56.430219 C 130.593803 63.21147 130.593803 71.169803 127.250053 77.951054 L 104.72401 123.622932 C 101.47401 130.211474 94.765676 134.383349 87.416717 134.383349 L 45.135465 134.383349 C 37.791714 134.383349 31.08338 130.211474 27.83338 123.622932 L 5.307337 77.951054 C 1.963587 71.169803 1.963587 63.21147 5.307337 56.430219 L 27.83338 10.763549 C 31.08338 4.169799 37.791714 -0.00207627 45.135465 -0.00207627 L 87.416717 -0.00207627 C 94.765676 -0.00207627 101.47401 4.169799 104.72401 10.763549 Z M 104.72401 10.763549 " transform="matrix(0,-0.75,0.75,0,135.501557,225.742221)"/></g></g><g style="fill:#ffffff;fill-opacity:1;"><g transform="translate(141.379425, 196.200633)"><path style="stroke:none" d="M 24.609375 -6.296875 L 24.609375 0 L 0.921875 0 L 14.0625 -25.171875 L 1.84375 -25.171875 L 1.84375 -31.453125 L 25.359375 -31.453125 L 12.21875 -6.296875 Z M 24.609375 -6.296875 "/></g></g><g style="fill:#ffffff;fill-opacity:1;"><g transform="translate(176.915778, 196.200633)"><path style="stroke:none" d="M 19.890625 -12.03125 L 15.921875 -23.21875 L 11.9375 -12.03125 Z M 31.640625 0 L 24.203125 0 L 21.9375 -6.34375 L 9.953125 -6.34375 L 7.6875 0 L 0.234375 0 L 13 -31.453125 L 18.875 -31.453125 Z M 31.640625 0 "/></g></g><g style="fill:#ffffff;fill-opacity:1;"><g transform="translate(218.050953, 196.200633)"><path style="stroke:none" d="M 9.71875 0 L 2.78125 0 L 2.78125 -31.453125 L 9.71875 -31.453125 Z M 9.71875 0 "/></g></g><g style="fill:#8c52ff;fill-opacity:1;"><g transform="translate(135.670483, 187.446448)"><path style="stroke:none" d="M 24.609375 -6.296875 L 24.609375 0 L 0.921875 0 L 14.0625 -25.171875 L 1.84375 -25.171875 L 1.84375 -31.453125 L 25.359375 -31.453125 L 12.21875 -6.296875 Z M 24.609375 -6.296875 "/></g></g><g style="fill:#8c52ff;fill-opacity:1;"><g transform="translate(171.203608, 187.446448)"><path style="stroke:none" d="M 19.890625 -12.03125 L 15.921875 -23.21875 L 11.9375 -12.03125 Z M 31.640625 0 L 24.203125 0 L 21.9375 -6.34375 L 9.953125 -6.34375 L 7.6875 0 L 0.234375 0 L 13 -31.453125 L 18.875 -31.453125 Z M 31.640625 0 "/></g></g><g style="fill:#8c52ff;fill-opacity:1;"><g transform="translate(212.334872, 187.446448)"><path style="stroke:none" d="M 9.71875 0 L 2.78125 0 L 2.78125 -31.453125 L 9.71875 -31.453125 Z M 9.71875 0 "/></g></g><g style="fill:#ffffff;fill-opacity:1;"><g transform="translate(248.536321, 195.999933)"><path style="stroke:none" d="M 22.0625 0 L -0.6875 0 L 11.75 -15.921875 C 12.1875 -16.441406 12.648438 -17.007812 13.140625 -17.625 C 13.628906 -18.238281 14.050781 -18.894531 14.40625 -19.59375 C 14.757812 -20.289062 14.9375 -20.992188 14.9375 -21.703125 C 14.9375 -22.835938 14.601562 -23.726562 13.9375 -24.375 C 13.28125 -25.03125 12.425781 -25.359375 11.375 -25.359375 C 10.238281 -25.359375 9.316406 -24.984375 8.609375 -24.234375 C 7.898438 -23.492188 7.515625 -22.3125 7.453125 -20.6875 L 0.921875 -20.6875 C 0.984375 -22.71875 1.40625 -24.582031 2.1875 -26.28125 C 2.976562 -27.976562 4.132812 -29.34375 5.65625 -30.375 C 7.1875 -31.40625 9.078125 -31.921875 11.328125 -31.921875 C 13.367188 -31.921875 15.160156 -31.492188 16.703125 -30.640625 C 18.242188 -29.796875 19.4375 -28.601562 20.28125 -27.0625 C 21.132812 -25.519531 21.5625 -23.734375 21.5625 -21.703125 C 21.5625 -20.128906 21.273438 -18.703125 20.703125 -17.421875 C 20.128906 -16.140625 19.410156 -14.941406 18.546875 -13.828125 C 17.679688 -12.722656 16.789062 -11.597656 15.875 -10.453125 L 12.53125 -6.296875 L 22.0625 -6.296875 Z M 22.0625 0 "/></g></g><g style="fill:#ffffff;fill-opacity:1;"><g transform="translate(281.709903, 195.999933)"><path style="stroke:none" d="M 9.71875 -14.0625 L 9.71875 0 L 2.78125 0 L 2.78125 -31.453125 L 9.71875 -31.453125 L 9.71875 -17.390625 L 19.65625 -31.453125 L 28.546875 -31.453125 L 16.46875 -15.734375 L 29.015625 0 L 19.65625 0 Z M 9.71875 -14.0625 "/></g></g><path style="fill:none;stroke-width:4;stroke-linecap:butt;stroke-linejoin:miter;stroke:#8c52ff;stroke-opacity:1;stroke-miterlimit:4;" d="M -0.00285494 2.000201 L 65.249116 1.999923 " transform="matrix(0.673053,-0.324341,0.324341,0.673053,135.521144,143.027832)"/><path style="fill:none;stroke-width:4;stroke-linecap:butt;stroke-linejoin:miter;stroke:#8c52ff;stroke-opacity:1;stroke-miterlimit:4;" d="M 0.000185879 2.000765 L 43.999832 1.998119 " transform="matrix(0.669504,-0.338031,0.338031,0.669504,188.100899,212.980856)"/><g style="fill:#ffffff;fill-opacity:1;"><g transform="translate(42.671997, 196.219689)"><path style="stroke:none" d="M 42.015625 0 L 34.375 0 L 30.671875 -21.703125 L 24.515625 0 L 17.71875 0 L 11.5625 -21.703125 L 7.859375 0 L 0.234375 0 L 6.34375 -31.453125 L 14.578125 -31.453125 L 21.140625 -9.390625 L 27.671875 -31.453125 L 35.90625 -31.453125 Z M 42.015625 0 "/></g></g><g style="fill:#ffffff;fill-opacity:1;"><g transform="translate(94.166756, 196.219689)"><path style="stroke:none" d="M 9.71875 -11.25 L 9.71875 0 L 2.78125 0 L 2.78125 -31.453125 L 14.578125 -31.453125 C 16.273438 -31.453125 17.851562 -31.03125 19.3125 -30.1875 C 20.78125 -29.34375 21.960938 -28.160156 22.859375 -26.640625 C 23.753906 -25.128906 24.203125 -23.375 24.203125 -21.375 C 24.203125 -19.613281 23.875 -18.054688 23.21875 -16.703125 C 22.570312 -15.347656 21.707031 -14.238281 20.625 -13.375 C 19.550781 -12.507812 18.351562 -11.90625 17.03125 -11.5625 L 26.046875 0 L 17.25 0 L 9.765625 -11.25 Z M 13.421875 -26 L 9.71875 -26 L 9.71875 -16.703125 L 13.421875 -16.703125 C 14.429688 -16.703125 15.375 -17.101562 16.25 -17.90625 C 17.132812 -18.707031 17.578125 -19.863281 17.578125 -21.375 C 17.578125 -22.820312 17.132812 -23.953125 16.25 -24.765625 C 15.375 -25.585938 14.429688 -26 13.421875 -26 Z M 13.421875 -26 "/></g></g></g></svg>